<?xml version="1.0"?>
<svg xmlns="http://www.w3.org/2000/svg" xmlns:xlink="http://www.w3.org/1999/xlink" version="1.1" width="160px" height="160px" viewBox="0 0 160 160"><defs><rect id="block" width="5" height="5" fill="#4f6587" fill-opacity="1"/></defs><rect x="0" y="0" width="160" height="160" fill="#ffffff" fill-opacity="1"/><use x="7" y="7" xlink:href="#block"/><use x="12" y="7" xlink:href="#block"/><use x="17" y="7" xlink:href="#block"/><use x="22" y="7" xlink:href="#block"/><use x="27" y="7" xlink:href="#block"/><use x="32" y="7" xlink:href="#block"/><use x="37" y="7" xlink:href="#block"/><use x="52" y="7" xlink:href="#block"/><use x="67" y="7" xlink:href="#block"/><use x="72" y="7" xlink:href="#block"/><use x="77" y="7" xlink:href="#block"/><use x="87" y="7" xlink:href="#block"/><use x="107" y="7" xlink:href="#block"/><use x="117" y="7" xlink:href="#block"/><use x="122" y="7" xlink:href="#block"/><use x="127" y="7" xlink:href="#block"/><use x="132" y="7" xlink:href="#block"/><use x="137" y="7" xlink:href="#block"/><use x="142" y="7" xlink:href="#block"/><use x="147" y="7" xlink:href="#block"/><use x="7" y="12" xlink:href="#block"/><use x="37" y="12" xlink:href="#block"/><use x="57" y="12" xlink:href="#block"/><use x="62" y="12" xlink:href="#block"/><use x="67" y="12" xlink:href="#block"/><use x="77" y="12" xlink:href="#block"/><use x="82" y="12" xlink:href="#block"/><use x="97" y="12" xlink:href="#block"/><use x="117" y="12" xlink:href="#block"/><use x="147" y="12" xlink:href="#block"/><use x="7" y="17" xlink:href="#block"/><use x="17" y="17" xlink:href="#block"/><use x="22" y="17" xlink:href="#block"/><use x="27" y="17" xlink:href="#block"/><use x="37" y="17" xlink:href="#block"/><use x="47" y="17" xlink:href="#block"/><use x="52" y="17" xlink:href="#block"/><use x="57" y="17" xlink:href="#block"/><use x="67" y="17" xlink:href="#block"/><use x="72" y="17" xlink:href="#block"/><use x="77" y="17" xlink:href="#block"/><use x="87" y="17" xlink:href="#block"/><use x="97" y="17" xlink:href="#block"/><use x="102" y="17" xlink:href="#block"/><use x="117" y="17" xlink:href="#block"/><use x="127" y="17" xlink:href="#block"/><use x="132" y="17" xlink:href="#block"/><use x="137" y="17" xlink:href="#block"/><use x="147" y="17" xlink:href="#block"/><use x="7" y="22" xlink:href="#block"/><use x="17" y="22" xlink:href="#block"/><use x="22" y="22" xlink:href="#block"/><use x="27" y="22" xlink:href="#block"/><use x="37" y="22" xlink:href="#block"/><use x="52" y="22" xlink:href="#block"/><use x="57" y="22" xlink:href="#block"/><use x="62" y="22" xlink:href="#block"/><use x="72" y="22" xlink:href="#block"/><use x="77" y="22" xlink:href="#block"/><use x="82" y="22" xlink:href="#block"/><use x="87" y="22" xlink:href="#block"/><use x="97" y="22" xlink:href="#block"/><use x="102" y="22" xlink:href="#block"/><use x="107" y="22" xlink:href="#block"/><use x="117" y="22" xlink:href="#block"/><use x="127" y="22" xlink:href="#block"/><use x="132" y="22" xlink:href="#block"/><use x="137" y="22" xlink:href="#block"/><use x="147" y="22" xlink:href="#block"/><use x="7" y="27" xlink:href="#block"/><use x="17" y="27" xlink:href="#block"/><use x="22" y="27" xlink:href="#block"/><use x="27" y="27" xlink:href="#block"/><use x="37" y="27" xlink:href="#block"/><use x="57" y="27" xlink:href="#block"/><use x="77" y="27" xlink:href="#block"/><use x="82" y="27" xlink:href="#block"/><use x="97" y="27" xlink:href="#block"/><use x="107" y="27" xlink:href="#block"/><use x="117" y="27" xlink:href="#block"/><use x="127" y="27" xlink:href="#block"/><use x="132" y="27" xlink:href="#block"/><use x="137" y="27" xlink:href="#block"/><use x="147" y="27" xlink:href="#block"/><use x="7" y="32" xlink:href="#block"/><use x="37" y="32" xlink:href="#block"/><use x="52" y="32" xlink:href="#block"/><use x="72" y="32" xlink:href="#block"/><use x="82" y="32" xlink:href="#block"/><use x="87" y="32" xlink:href="#block"/><use x="97" y="32" xlink:href="#block"/><use x="117" y="32" xlink:href="#block"/><use x="147" y="32" xlink:href="#block"/><use x="7" y="37" xlink:href="#block"/><use x="12" y="37" xlink:href="#block"/><use x="17" y="37" xlink:href="#block"/><use x="22" y="37" xlink:href="#block"/><use x="27" y="37" xlink:href="#block"/><use x="32" y="37" xlink:href="#block"/><use x="37" y="37" xlink:href="#block"/><use x="47" y="37" xlink:href="#block"/><use x="57" y="37" xlink:href="#block"/><use x="67" y="37" xlink:href="#block"/><use x="77" y="37" xlink:href="#block"/><use x="87" y="37" xlink:href="#block"/><use x="97" y="37" xlink:href="#block"/><use x="107" y="37" xlink:href="#block"/><use x="117" y="37" xlink:href="#block"/><use x="122" y="37" xlink:href="#block"/><use x="127" y="37" xlink:href="#block"/><use x="132" y="37" xlink:href="#block"/><use x="137" y="37" xlink:href="#block"/><use x="142" y="37" xlink:href="#block"/><use x="147" y="37" xlink:href="#block"/><use x="47" y="42" xlink:href="#block"/><use x="52" y="42" xlink:href="#block"/><use x="57" y="42" xlink:href="#block"/><use x="67" y="42" xlink:href="#block"/><use x="72" y="42" xlink:href="#block"/><use x="77" y="42" xlink:href="#block"/><use x="87" y="42" xlink:href="#block"/><use x="92" y="42" xlink:href="#block"/><use x="107" y="42" xlink:href="#block"/><use x="7" y="47" xlink:href="#block"/><use x="12" y="47" xlink:href="#block"/><use x="17" y="47" xlink:href="#block"/><use x="27" y="47" xlink:href="#block"/><use x="32" y="47" xlink:href="#block"/><use x="37" y="47" xlink:href="#block"/><use x="42" y="47" xlink:href="#block"/><use x="47" y="47" xlink:href="#block"/><use x="57" y="47" xlink:href="#block"/><use x="62" y="47" xlink:href="#block"/><use x="77" y="47" xlink:href="#block"/><use x="92" y="47" xlink:href="#block"/><use x="112" y="47" xlink:href="#block"/><use x="117" y="47" xlink:href="#block"/><use x="137" y="47" xlink:href="#block"/><use x="7" y="52" xlink:href="#block"/><use x="22" y="52" xlink:href="#block"/><use x="57" y="52" xlink:href="#block"/><use x="62" y="52" xlink:href="#block"/><use x="77" y="52" xlink:href="#block"/><use x="82" y="52" xlink:href="#block"/><use x="87" y="52" xlink:href="#block"/><use x="92" y="52" xlink:href="#block"/><use x="97" y="52" xlink:href="#block"/><use x="102" y="52" xlink:href="#block"/><use x="117" y="52" xlink:href="#block"/><use x="122" y="52" xlink:href="#block"/><use x="127" y="52" xlink:href="#block"/><use x="147" y="52" xlink:href="#block"/><use x="7" y="57" xlink:href="#block"/><use x="12" y="57" xlink:href="#block"/><use x="22" y="57" xlink:href="#block"/><use x="32" y="57" xlink:href="#block"/><use x="37" y="57" xlink:href="#block"/><use x="52" y="57" xlink:href="#block"/><use x="72" y="57" xlink:href="#block"/><use x="87" y="57" xlink:href="#block"/><use x="102" y="57" xlink:href="#block"/><use x="117" y="57" xlink:href="#block"/><use x="132" y="57" xlink:href="#block"/><use x="142" y="57" xlink:href="#block"/><use x="147" y="57" xlink:href="#block"/><use x="7" y="62" xlink:href="#block"/><use x="17" y="62" xlink:href="#block"/><use x="27" y="62" xlink:href="#block"/><use x="42" y="62" xlink:href="#block"/><use x="62" y="62" xlink:href="#block"/><use x="82" y="62" xlink:href="#block"/><use x="87" y="62" xlink:href="#block"/><use x="92" y="62" xlink:href="#block"/><use x="97" y="62" xlink:href="#block"/><use x="117" y="62" xlink:href="#block"/><use x="132" y="62" xlink:href="#block"/><use x="142" y="62" xlink:href="#block"/><use x="17" y="67" xlink:href="#block"/><use x="22" y="67" xlink:href="#block"/><use x="37" y="67" xlink:href="#block"/><use x="47" y="67" xlink:href="#block"/><use x="67" y="67" xlink:href="#block"/><use x="97" y="67" xlink:href="#block"/><use x="107" y="67" xlink:href="#block"/><use x="112" y="67" xlink:href="#block"/><use x="117" y="67" xlink:href="#block"/><use x="122" y="67" xlink:href="#block"/><use x="142" y="67" xlink:href="#block"/><use x="147" y="67" xlink:href="#block"/><use x="12" y="72" xlink:href="#block"/><use x="22" y="72" xlink:href="#block"/><use x="27" y="72" xlink:href="#block"/><use x="32" y="72" xlink:href="#block"/><use x="52" y="72" xlink:href="#block"/><use x="62" y="72" xlink:href="#block"/><use x="67" y="72" xlink:href="#block"/><use x="72" y="72" xlink:href="#block"/><use x="87" y="72" xlink:href="#block"/><use x="92" y="72" xlink:href="#block"/><use x="97" y="72" xlink:href="#block"/><use x="102" y="72" xlink:href="#block"/><use x="107" y="72" xlink:href="#block"/><use x="117" y="72" xlink:href="#block"/><use x="22" y="77" xlink:href="#block"/><use x="27" y="77" xlink:href="#block"/><use x="32" y="77" xlink:href="#block"/><use x="37" y="77" xlink:href="#block"/><use x="47" y="77" xlink:href="#block"/><use x="62" y="77" xlink:href="#block"/><use x="67" y="77" xlink:href="#block"/><use x="77" y="77" xlink:href="#block"/><use x="87" y="77" xlink:href="#block"/><use x="92" y="77" xlink:href="#block"/><use x="107" y="77" xlink:href="#block"/><use x="112" y="77" xlink:href="#block"/><use x="117" y="77" xlink:href="#block"/><use x="127" y="77" xlink:href="#block"/><use x="132" y="77" xlink:href="#block"/><use x="147" y="77" xlink:href="#block"/><use x="32" y="82" xlink:href="#block"/><use x="42" y="82" xlink:href="#block"/><use x="47" y="82" xlink:href="#block"/><use x="57" y="82" xlink:href="#block"/><use x="67" y="82" xlink:href="#block"/><use x="72" y="82" xlink:href="#block"/><use x="77" y="82" xlink:href="#block"/><use x="82" y="82" xlink:href="#block"/><use x="87" y="82" xlink:href="#block"/><use x="92" y="82" xlink:href="#block"/><use x="97" y="82" xlink:href="#block"/><use x="107" y="82" xlink:href="#block"/><use x="117" y="82" xlink:href="#block"/><use x="132" y="82" xlink:href="#block"/><use x="137" y="82" xlink:href="#block"/><use x="147" y="82" xlink:href="#block"/><use x="12" y="87" xlink:href="#block"/><use x="37" y="87" xlink:href="#block"/><use x="52" y="87" xlink:href="#block"/><use x="57" y="87" xlink:href="#block"/><use x="62" y="87" xlink:href="#block"/><use x="77" y="87" xlink:href="#block"/><use x="107" y="87" xlink:href="#block"/><use x="117" y="87" xlink:href="#block"/><use x="122" y="87" xlink:href="#block"/><use x="132" y="87" xlink:href="#block"/><use x="137" y="87" xlink:href="#block"/><use x="147" y="87" xlink:href="#block"/><use x="17" y="92" xlink:href="#block"/><use x="22" y="92" xlink:href="#block"/><use x="47" y="92" xlink:href="#block"/><use x="52" y="92" xlink:href="#block"/><use x="62" y="92" xlink:href="#block"/><use x="77" y="92" xlink:href="#block"/><use x="92" y="92" xlink:href="#block"/><use x="102" y="92" xlink:href="#block"/><use x="112" y="92" xlink:href="#block"/><use x="142" y="92" xlink:href="#block"/><use x="147" y="92" xlink:href="#block"/><use x="7" y="97" xlink:href="#block"/><use x="17" y="97" xlink:href="#block"/><use x="27" y="97" xlink:href="#block"/><use x="37" y="97" xlink:href="#block"/><use x="42" y="97" xlink:href="#block"/><use x="72" y="97" xlink:href="#block"/><use x="82" y="97" xlink:href="#block"/><use x="87" y="97" xlink:href="#block"/><use x="102" y="97" xlink:href="#block"/><use x="112" y="97" xlink:href="#block"/><use x="117" y="97" xlink:href="#block"/><use x="122" y="97" xlink:href="#block"/><use x="132" y="97" xlink:href="#block"/><use x="147" y="97" xlink:href="#block"/><use x="12" y="102" xlink:href="#block"/><use x="17" y="102" xlink:href="#block"/><use x="42" y="102" xlink:href="#block"/><use x="52" y="102" xlink:href="#block"/><use x="57" y="102" xlink:href="#block"/><use x="62" y="102" xlink:href="#block"/><use x="87" y="102" xlink:href="#block"/><use x="92" y="102" xlink:href="#block"/><use x="102" y="102" xlink:href="#block"/><use x="107" y="102" xlink:href="#block"/><use x="112" y="102" xlink:href="#block"/><use x="117" y="102" xlink:href="#block"/><use x="122" y="102" xlink:href="#block"/><use x="142" y="102" xlink:href="#block"/><use x="147" y="102" xlink:href="#block"/><use x="7" y="107" xlink:href="#block"/><use x="17" y="107" xlink:href="#block"/><use x="22" y="107" xlink:href="#block"/><use x="32" y="107" xlink:href="#block"/><use x="37" y="107" xlink:href="#block"/><use x="47" y="107" xlink:href="#block"/><use x="52" y="107" xlink:href="#block"/><use x="57" y="107" xlink:href="#block"/><use x="67" y="107" xlink:href="#block"/><use x="107" y="107" xlink:href="#block"/><use x="112" y="107" xlink:href="#block"/><use x="117" y="107" xlink:href="#block"/><use x="122" y="107" xlink:href="#block"/><use x="127" y="107" xlink:href="#block"/><use x="147" y="107" xlink:href="#block"/><use x="47" y="112" xlink:href="#block"/><use x="62" y="112" xlink:href="#block"/><use x="67" y="112" xlink:href="#block"/><use x="72" y="112" xlink:href="#block"/><use x="82" y="112" xlink:href="#block"/><use x="92" y="112" xlink:href="#block"/><use x="97" y="112" xlink:href="#block"/><use x="107" y="112" xlink:href="#block"/><use x="127" y="112" xlink:href="#block"/><use x="142" y="112" xlink:href="#block"/><use x="7" y="117" xlink:href="#block"/><use x="12" y="117" xlink:href="#block"/><use x="17" y="117" xlink:href="#block"/><use x="22" y="117" xlink:href="#block"/><use x="27" y="117" xlink:href="#block"/><use x="32" y="117" xlink:href="#block"/><use x="37" y="117" xlink:href="#block"/><use x="47" y="117" xlink:href="#block"/><use x="52" y="117" xlink:href="#block"/><use x="62" y="117" xlink:href="#block"/><use x="67" y="117" xlink:href="#block"/><use x="77" y="117" xlink:href="#block"/><use x="107" y="117" xlink:href="#block"/><use x="117" y="117" xlink:href="#block"/><use x="127" y="117" xlink:href="#block"/><use x="132" y="117" xlink:href="#block"/><use x="137" y="117" xlink:href="#block"/><use x="142" y="117" xlink:href="#block"/><use x="147" y="117" xlink:href="#block"/><use x="7" y="122" xlink:href="#block"/><use x="37" y="122" xlink:href="#block"/><use x="47" y="122" xlink:href="#block"/><use x="67" y="122" xlink:href="#block"/><use x="72" y="122" xlink:href="#block"/><use x="77" y="122" xlink:href="#block"/><use x="87" y="122" xlink:href="#block"/><use x="107" y="122" xlink:href="#block"/><use x="127" y="122" xlink:href="#block"/><use x="132" y="122" xlink:href="#block"/><use x="137" y="122" xlink:href="#block"/><use x="142" y="122" xlink:href="#block"/><use x="147" y="122" xlink:href="#block"/><use x="7" y="127" xlink:href="#block"/><use x="17" y="127" xlink:href="#block"/><use x="22" y="127" xlink:href="#block"/><use x="27" y="127" xlink:href="#block"/><use x="37" y="127" xlink:href="#block"/><use x="47" y="127" xlink:href="#block"/><use x="62" y="127" xlink:href="#block"/><use x="77" y="127" xlink:href="#block"/><use x="87" y="127" xlink:href="#block"/><use x="92" y="127" xlink:href="#block"/><use x="97" y="127" xlink:href="#block"/><use x="107" y="127" xlink:href="#block"/><use x="112" y="127" xlink:href="#block"/><use x="117" y="127" xlink:href="#block"/><use x="122" y="127" xlink:href="#block"/><use x="127" y="127" xlink:href="#block"/><use x="7" y="132" xlink:href="#block"/><use x="17" y="132" xlink:href="#block"/><use x="22" y="132" xlink:href="#block"/><use x="27" y="132" xlink:href="#block"/><use x="37" y="132" xlink:href="#block"/><use x="52" y="132" xlink:href="#block"/><use x="62" y="132" xlink:href="#block"/><use x="77" y="132" xlink:href="#block"/><use x="87" y="132" xlink:href="#block"/><use x="92" y="132" xlink:href="#block"/><use x="102" y="132" xlink:href="#block"/><use x="107" y="132" xlink:href="#block"/><use x="112" y="132" xlink:href="#block"/><use x="127" y="132" xlink:href="#block"/><use x="7" y="137" xlink:href="#block"/><use x="17" y="137" xlink:href="#block"/><use x="22" y="137" xlink:href="#block"/><use x="27" y="137" xlink:href="#block"/><use x="37" y="137" xlink:href="#block"/><use x="47" y="137" xlink:href="#block"/><use x="57" y="137" xlink:href="#block"/><use x="72" y="137" xlink:href="#block"/><use x="87" y="137" xlink:href="#block"/><use x="102" y="137" xlink:href="#block"/><use x="107" y="137" xlink:href="#block"/><use x="112" y="137" xlink:href="#block"/><use x="117" y="137" xlink:href="#block"/><use x="127" y="137" xlink:href="#block"/><use x="137" y="137" xlink:href="#block"/><use x="147" y="137" xlink:href="#block"/><use x="7" y="142" xlink:href="#block"/><use x="37" y="142" xlink:href="#block"/><use x="47" y="142" xlink:href="#block"/><use x="62" y="142" xlink:href="#block"/><use x="82" y="142" xlink:href="#block"/><use x="87" y="142" xlink:href="#block"/><use x="92" y="142" xlink:href="#block"/><use x="97" y="142" xlink:href="#block"/><use x="102" y="142" xlink:href="#block"/><use x="127" y="142" xlink:href="#block"/><use x="147" y="142" xlink:href="#block"/><use x="7" y="147" xlink:href="#block"/><use x="12" y="147" xlink:href="#block"/><use x="17" y="147" xlink:href="#block"/><use x="22" y="147" xlink:href="#block"/><use x="27" y="147" xlink:href="#block"/><use x="32" y="147" xlink:href="#block"/><use x="37" y="147" xlink:href="#block"/><use x="47" y="147" xlink:href="#block"/><use x="67" y="147" xlink:href="#block"/><use x="92" y="147" xlink:href="#block"/><use x="97" y="147" xlink:href="#block"/><use x="102" y="147" xlink:href="#block"/><use x="107" y="147" xlink:href="#block"/><use x="112" y="147" xlink:href="#block"/><use x="117" y="147" xlink:href="#block"/><use x="122" y="147" xlink:href="#block"/><use x="127" y="147" xlink:href="#block"/><use x="142" y="147" xlink:href="#block"/><use x="147" y="147" xlink:href="#block"/></svg>
