<?xml version="1.0" ?><!DOCTYPE svg  PUBLIC '-//W3C//DTD SVG 1.1//EN'  'http://www.w3.org/Graphics/SVG/1.1/DTD/svg11.dtd'><svg enable-background="new 0 0 32 32" height="32px" version="1.1" viewBox="0 0 32 32" width="32px" xml:space="preserve" xmlns="http://www.w3.org/2000/svg" xmlns:xlink="http://www.w3.org/1999/xlink"><g id="Guides"/><g id="Mail"/><g id="Cloud"/><g id="Home"/><g id="Back"/><g id="Next"/><g id="Reload"/><g id="Buble"/><g id="Accept"/><g id="Reject"><path d="M16,4C9.3828,4,4,9.3833,4,16s5.3828,12,12,12s12-5.3833,12-12S22.6172,4,16,4z M16,26c-5.5137,0-10-4.4858-10-10   S10.4863,6,16,6s10,4.4858,10,10S21.5137,26,16,26z M20.707,12.707L17.4141,16l3.293,3.293c0.3906,0.3906,0.3906,1.0234,0,1.4141   C20.5117,20.9023,20.2559,21,20,21s-0.5117-0.0977-0.707-0.293L16,17.4141l-3.293,3.293C12.5117,20.9023,12.2559,21,12,21   s-0.5117-0.0977-0.707-0.293c-0.3906-0.3906-0.3906-1.0234,0-1.4141L14.5859,16l-3.293-3.293   c-0.3906-0.3906-0.3906-1.0234,0-1.4141s1.0234-0.3906,1.4141,0L16,14.5859l3.293-3.293c0.3906-0.3906,1.0234-0.3906,1.4141,0   S21.0977,12.3164,20.707,12.707z"/></g><g id="User"/><g id="Download"/><g id="Upload"/><g id="Camera"/><g id="Notification"/><g id="About"/><g id="Search"/><g id="Cart"/><g id="Sound"/><g id="List"/><g id="Settings"/></svg>